# File created by Blade
# Date/Time:  Wed Jan 21 19:09:01 2015
#---------------------------------------------------------
:version 1.10
:name HOM
:units
  mass 1.0
  length 1.000000
  angle deg
:documentation
     Acclaim Skeleton File
:root
   axis xyz
   order TX TY TZ RX RY RZ
   position 0.000000 0.000000 0.000000
   orientation 0 0 0
:bonedata
   begin
      id 1
      name RightUpLeg_dum
      direction -1.000000 0.000000 0.000000
      length 3.693983
      axis 0.0 0.0 0.0 xyz
   end
   begin
      id 2
      name LeftUpLeg_dum
      direction 1.000000 0.000000 0.000000
      length 3.693983
      axis 0.0 0.0 0.0 xyz
   end
   begin
      id 3
      name Spine_dum
      direction 0.000000 1.000000 0.000000
      length 2.392956
      axis 0.0 0.0 0.0 xyz
   end
   begin
      id 4
      name RightUpLeg
      direction 0.000000 -1.000000 0.000000
      length 15.795667
      axis 0.0 0.0 0.0 xyz
      dof rx ry rz
   end
   begin
      id 5
      name RightLeg
      direction 0.000000 -1.000000 0.000000
      length 14.766989
      axis 0.0 0.0 0.0 xyz
      dof rx ry rz
   end
   begin
      id 6
      name RightFoot
      direction 0.000000 -0.258819 0.965926
      length 4.962790
      axis 15.0 0.0 0.0 xyz
      dof rx ry rz
   end
   begin
      id 7
      name RightToeBase
      direction 0.000000 0.000000 1.000000
      length 2.952750
      axis 0.0 0.0 0.0 xyz
      dof rx ry rz
   end
   begin
      id 8
      name LeftUpLeg
      direction 0.000000 -1.000000 0.000000
      length 15.795667
      axis 0.0 0.0 0.0 xyz
      dof rx ry rz
   end
   begin
      id 9
      name LeftLeg
      direction 0.000000 -1.000000 0.000000
      length 14.766989
      axis 0.0 0.0 0.0 xyz
      dof rx ry rz
   end
   begin
      id 10
      name LeftFoot
      direction 0.000000 -0.258819 0.965926
      length 4.962790
      axis 15.0 0.0 0.0 xyz
      dof rx ry rz
   end
   begin
      id 11
      name LeftToeBase
      direction 0.000000 0.000000 1.000000
      length 2.952750
      axis 0.0 0.0 0.0 xyz
      dof rx ry rz
   end
   begin
      id 12
      name Spine
      direction 0.000000 1.000000 0.000000
      length 0.000000
      axis 0.0 0.0 0.0 xyz
      dof rx ry rz
   end
   begin
      id 13
      name Spine_dum1
      direction 0.000000 1.000000 0.000000
      length 13.207411
      axis 0.0 0.0 0.0 xyz
   end
   begin
      id 14
      name Spine_dum2
      direction 0.000000 1.000000 0.000000
      length 13.207411
      axis 0.0 0.0 0.0 xyz
   end
   begin
      id 15
      name Spine_dum3
      direction 0.000000 1.000000 0.000000
      length 19.250100
      axis 0.0 0.0 0.0 xyz
   end
   begin
      id 16
      name RightShoulder
      direction -1.000000 0.000000 0.000000
      length 8.140465
      axis 0.0 0.0 90.0 xyz
      dof rx ry rz
   end
   begin
      id 17
      name RightArm
      direction -1.000000 0.000000 0.000000
      length 10.649840
      axis 0.0 0.0 90.0 xyz
      dof rx ry rz
   end
   begin
      id 18
      name RightForeArm
      direction -1.000000 0.000000 0.000000
      length 8.304624
      axis 0.0 0.0 90.0 xyz
      dof ry rz rx
   end
   begin
      id 19
      name RightHand
      direction -1.000000 0.000000 0.000000
      length 0.000000
      axis 0.0 0.0 90.0 xyz
      dof rx ry rz
   end
   begin
      id 20
      name RightHand_dum1
      direction -1.000000 0.000000 0.000000
      length 3.937000
      axis 0.0 0.0 90.0 xyz
   end
   begin
      id 21
      name RightHand_dum2
      direction 0.000000 0.000000 0.000000
      length 0.000000
      axis 0.0 0.0 90.0 xyz
   end
   begin
      id 22
      name RightHandThumb1
      direction 0.000000 0.000000 1.000000
      length 3.937000
      axis 0.0 0.0 90.0 xyz
      dof rx rz ry
   end
   begin
      id 23
      name LeftShoulder
      direction 1.000000 0.000000 0.000000
      length 8.140465
      axis 0.0 0.0 -90.0 xyz
      dof rx ry rz
   end
   begin
      id 24
      name LeftArm
      direction 1.000000 0.000000 0.000000
      length 10.649840
      axis 0.0 0.0 -90.0 xyz
      dof rx ry rz
   end
   begin
      id 25
      name LeftForeArm
      direction 1.000000 0.000000 0.000000
      length 8.304624
      axis 0.0 0.0 -90.0 xyz
      dof ry rz rx
   end
   begin
      id 26
      name LeftHand
      direction 1.000000 0.000000 0.000000
      length 0.000000
      axis 0.0 0.0 -90.0 xyz
      dof rx ry rz
   end
   begin
      id 27
      name LeftHand_dum1
      direction 1.000000 0.000000 0.000000
      length 3.937000
      axis 0.0 0.0 -90.0 xyz
   end
   begin
      id 28
      name LeftHand_dum2
      direction 0.000000 0.000000 0.000000
      length 0.000000
      axis 0.0 0.0 -90.0 xyz
   end
   begin
      id 29
      name LeftHandThumb1
      direction 0.000000 0.000000 1.000000
      length 3.937000
      axis 0.0 0.0 -90.0 xyz
      dof rx rz ry
   end
   begin
      id 30
      name Head
      direction 0.000000 1.000000 0.000000
      length 4.527550
      axis 0.0 0.0 0.0 xyz
      dof rx ry rz
   end
:hierarchy
   begin
      root RightUpLeg_dum LeftUpLeg_dum Spine_dum
      RightUpLeg_dum RightUpLeg
      LeftUpLeg_dum LeftUpLeg
      Spine_dum Spine
      RightUpLeg RightLeg
      RightLeg RightFoot
      RightFoot RightToeBase
      LeftUpLeg LeftLeg
      LeftLeg LeftFoot
      LeftFoot LeftToeBase
      Spine Spine_dum1 Spine_dum2 Spine_dum3
      Spine_dum1 RightShoulder
      Spine_dum2 LeftShoulder
      Spine_dum3 Head
      RightShoulder RightArm
      RightArm RightForeArm
      RightForeArm RightHand
      RightHand RightHand_dum1 RightHand_dum2
      RightHand_dum2 RightHandThumb1
      LeftShoulder LeftArm
      LeftArm LeftForeArm
      LeftForeArm LeftHand
      LeftHand LeftHand_dum1 LeftHand_dum2
      LeftHand_dum2 LeftHandThumb1
   end

# File created by Blade
# Date/Time:  Wed Jan 21 19:08:52 2015
# Frame Rate: 120.000 fps
#------------------------------------------------------
:FULLY-SPECIFIED
:DEGREES
2103
root -0.918411 31.766964 -10.530143 58.449357 -23.546353 4.535801
RightUpLeg -53.868778 10.083256 4.281959
RightLeg -5.571101 -0.000000 0.000000
RightFoot -4.805136 4.579190 4.385344
RightToeBase 17.709359 -0.000000 -0.000000
LeftUpLeg -67.101100 -8.921496 -7.327348
LeftLeg 2.745476 -0.000000 -0.000000
LeftFoot -5.226463 8.104664 -3.798451
LeftToeBase 8.140259 -0.000000 -0.000000
Spine -32.188642 -30.233691 -26.297419
RightShoulder -30.187979 20.468912 -80.936454
RightArm -4.392472 -17.809413 4.881184
RightForeArm 27.837880 0.000000 -6.507241
RightHand 14.560518 -0.000000 1.431327
RightHandThumb1 -24.326973 -0.000000 -32.862282
LeftShoulder -5.947648 4.353147 1.349572
LeftArm 19.929718 20.893745 -67.116318
LeftForeArm 7.124422 -0.000000 -5.064274
LeftHand -12.581216 -0.000000 0.512306
LeftHandThumb1 -26.253704 0.000000 33.147579
Head -25.930530 14.806913 -48.841134
2104
root -0.922956 31.766602 -10.518819 58.427431 -23.403598 4.556778
RightUpLeg -53.844202 10.087651 4.249850
RightLeg -5.577156 -0.000000 0.000000
RightFoot -4.872538 4.424999 4.275197
RightToeBase 17.682577 -0.000000 -0.000000
LeftUpLeg -67.085483 -8.962314 -7.313892
LeftLeg 2.807776 -0.000000 -0.000000
LeftFoot -5.238569 7.996637 -3.815813
LeftToeBase 8.057723 -0.000000 -0.000000
Spine -32.213157 -30.251717 -26.244336
RightShoulder -30.254048 20.541364 -80.983815
RightArm -4.495795 -17.960570 4.812206
RightForeArm 28.031202 -0.000000 -6.505386
RightHand 14.554222 -0.000000 1.581495
RightHandThumb1 -24.326973 -0.000000 -32.862282
LeftShoulder -5.929796 4.331286 1.344263
LeftArm 19.816019 20.798709 -67.215082
LeftForeArm 7.240166 0.000000 -5.023562
LeftHand -12.532828 -0.000000 0.273438
LeftHandThumb1 -26.253704 0.000000 33.147579
Head -25.922728 14.791802 -48.791938
2105
root -0.925841 31.765979 -10.508607 58.425520 -23.256323 4.584837
RightUpLeg -53.853225 10.079285 4.218083
RightLeg -5.566175 -0.000000 0.000000
RightFoot -4.974127 4.300879 4.193865
RightToeBase 17.756693 -0.000000 -0.000000
LeftUpLeg -67.105572 -9.029562 -7.273283
LeftLeg 2.883542 -0.000000 -0.000000
LeftFoot -5.266337 7.911971 -3.829433
LeftToeBase 8.081720 -0.000000 -0.000000
Spine -32.249859 -30.274436 -26.174471
RightShoulder -30.289330 20.556368 -81.021745
RightArm -4.699880 -17.892919 4.741647
RightForeArm 27.961725 0.000000 -6.325062
RightHand 14.569530 0.000000 1.424808
RightHandThumb1 -24.326973 -0.000000 -32.862282
LeftShoulder -5.948828 4.281582 1.321504
LeftArm 19.740806 20.789068 -67.281086
LeftForeArm 7.353100 -0.000000 -4.992659
LeftHand -12.521796 0.000000 0.084672
LeftHandThumb1 -26.253704 0.000000 33.147579
Head -25.933684 14.759841 -48.746923
2106
root -0.928688 31.764113 -10.499588 58.424011 -23.114269 4.613972
RightUpLeg -53.868825 10.073010 4.174913
RightLeg -5.552578 -0.000000 0.000000
RightFoot -5.020918 4.164514 4.268384
RightToeBase 17.673237 -0.000000 -0.000000
LeftUpLeg -67.128436 -9.104282 -7.219372
LeftLeg 2.955234 -0.000000 -0.000000
LeftFoot -5.316831 7.869700 -3.794509
LeftToeBase 8.159398 -0.000000 -0.000000
Spine -32.290222 -30.284476 -26.125889
RightShoulder -30.297851 20.550071 -80.998434
RightArm -4.902374 -17.894782 4.624218
RightForeArm 27.951151 -0.000000 -6.110992
RightHand 14.439820 -0.000000 1.423294
RightHandThumb1 -24.326973 -0.000000 -32.862282
LeftShoulder -5.923311 4.228376 1.317131
LeftArm 19.683071 20.871368 -67.340655
LeftForeArm 7.245598 0.000000 -5.052707
LeftHand -12.301195 -0.000000 -0.157681
LeftHandThumb1 -26.253704 0.000000 33.147579
Head -25.915356 14.761421 -48.666113
2107
root -0.931360 31.763368 -10.492354 58.438720 -22.956268 4.644091
RightUpLeg -53.894289 10.052806 4.158172
RightLeg -5.548125 -0.000000 0.000000
RightFoot -5.122979 4.045711 4.194798
RightToeBase 17.766640 -0.000000 -0.000000
LeftUpLeg -67.173988 -9.183053 -7.156725
LeftLeg 3.031666 -0.000000 -0.000000
LeftFoot -5.337767 7.804452 -3.772597
LeftToeBase 8.189190 -0.000000 -0.000000
Spine -32.334615 -30.325554 -26.045421
RightShoulder -30.315379 20.556844 -80.962326
RightArm -5.112428 -17.769469 4.455546
RightForeArm 27.866173 -0.000000 -5.825566
RightHand 14.433059 0.000000 1.342493
RightHandThumb1 -24.326973 -0.000000 -32.862282
LeftShoulder -5.929374 4.229250 1.311171
LeftArm 19.668139 20.872787 -67.400315
LeftForeArm 7.327427 -0.000000 -5.039017
LeftHand -12.179309 -0.000000 -0.422162
LeftHandThumb1 -26.253704 0.000000 33.147579
Head -25.935537 14.770204 -48.583022
2108
root -0.933341 31.762182 -10.482209 58.430398 -22.832165 4.682250
RightUpLeg -53.891834 10.013946 4.140187
RightLeg -5.545571 -0.000000 0.000000
RightFoot -5.179405 3.984713 4.305230
RightToeBase 17.744270 -0.000000 -0.000000
LeftUpLeg -67.220995 -9.290065 -7.029530
LeftLeg 3.140886 -0.000000 -0.000000
LeftFoot -5.418205 7.789325 -3.927129
LeftToeBase 8.234603 -0.000000 -0.000000
Spine -32.360517 -30.331652 -26.020661
RightShoulder -30.380619 20.526046 -80.951000
RightArm -5.236250 -17.779155 4.354428
RightForeArm 27.876305 -0.000000 -5.620576
RightHand 14.488262 0.000000 1.007639
RightHandThumb1 -24.326973 -0.000000 -32.862282
LeftShoulder -5.928089 4.239781 1.308762
LeftArm 19.641832 20.832304 -67.483479
LeftForeArm 7.496233 -0.000000 -4.975897
LeftHand -12.039439 -0.000000 -0.883625
LeftHandThumb1 -26.253704 0.000000 33.147579
Head -25.937484 14.766994 -48.465826
2109
root -0.938629 31.761632 -10.474636 58.425103 -22.719554 4.708722
RightUpLeg -53.888390 9.997873 4.121935
RightLeg -5.545879 -0.000000 0.000000
RightFoot -5.260488 3.906762 4.253982
RightToeBase 17.845249 -0.000000 -0.000000
LeftUpLeg -67.239175 -9.351757 -6.970556
LeftLeg 3.203924 -0.000000 -0.000000
LeftFoot -5.462160 7.755891 -3.946228
LeftToeBase 8.285009 -0.000000 -0.000000
Spine -32.389792 -30.320634 -26.018356
RightShoulder -30.416446 20.518144 -80.951225
RightArm -5.434278 -17.753350 4.256819
RightForeArm 27.816054 0.000000 -5.306269
RightHand 14.617751 -0.000000 0.623271
RightHandThumb1 -24.326973 -0.000000 -32.862282
LeftShoulder -5.916441 4.210925 1.328552
LeftArm 19.628748 20.965556 -67.538163
LeftForeArm 7.417195 -0.000000 -4.989605
LeftHand -11.981170 -0.000000 -0.882403
LeftHandThumb1 -26.253704 0.000000 33.147579
Head -25.907301 14.772312 -48.315740
2110
root -0.943519 31.760907 -10.467400 58.430306 -22.596957 4.726160
RightUpLeg -53.889949 9.993726 4.097279
RightLeg -5.557839 -0.000000 0.000000
RightFoot -5.261672 3.812423 4.370731
RightToeBase 17.760698 -0.000000 -0.000000
LeftUpLeg -67.262224 -9.386954 -6.944094
LeftLeg 3.272175 -0.000000 -0.000000
LeftFoot -5.480012 7.642392 -4.003594
LeftToeBase 8.257173 -0.000000 -0.000000
Spine -32.424923 -30.314739 -25.985654
RightShoulder -30.432531 20.543489 -80.927607
RightArm -5.625490 -17.793023 4.102944
RightForeArm 27.909015 -0.000000 -5.034721
RightHand 14.719284 -0.000000 0.393743
RightHandThumb1 -24.326973 -0.000000 -32.862282
LeftShoulder -5.931611 4.131218 1.318789
LeftArm 19.573188 21.031475 -67.606496
LeftForeArm 7.400314 -0.000000 -4.985507
LeftHand -11.840017 -0.000000 -1.237526
LeftHandThumb1 -26.253704 0.000000 33.147579
Head -25.899845 14.763477 -48.182556
2111
root -0.947820 31.760139 -10.459846 58.420789 -22.507669 4.757009
RightUpLeg -53.886658 9.987122 4.059400
RightLeg -5.553755 -0.000000 0.000000
RightFoot -5.358182 3.727542 4.263694
RightToeBase 17.856090 -0.000000 -0.000000
LeftUpLeg -67.294242 -9.420494 -6.940773
LeftLeg 3.385101 -0.000000 -0.000000
LeftFoot -5.548024 7.537645 -4.082915
LeftToeBase 8.304084 -0.000000 -0.000000
Spine -32.451395 -30.299655 -25.997240
RightShoulder -30.465826 20.576678 -80.922580
RightArm -5.787986 -17.782124 3.966751
RightForeArm 27.896391 0.000000 -4.803958
RightHand 14.715737 -0.000000 0.169392
RightHandThumb1 -24.326973 -0.000000 -32.862282
LeftShoulder -5.964018 4.055661 1.330765
LeftArm 19.532154 21.112454 -67.693173
LeftForeArm 7.362699 -0.000000 -4.975176
LeftHand -11.763328 -0.000000 -1.378265
LeftHandThumb1 -26.253704 0.000000 33.147579
Head -25.897624 14.741550 -48.014869
2112
root -0.952657 31.759122 -10.452214 58.412572 -22.422103 4.785513
RightUpLeg -53.878129 9.984864 4.027696
RightLeg -5.560874 -0.000000 0.000000
RightFoot -5.409051 3.622532 4.303440
RightToeBase 17.849483 -0.000000 -0.000000
LeftUpLeg -67.285454 -9.474463 -6.901740
LeftLeg 3.397757 -0.000000 -0.000000
LeftFoot -5.556725 7.513540 -4.082416
LeftToeBase 8.305082 -0.000000 -0.000000
Spine -32.488868 -30.284832 -25.999777
RightShoulder -30.523632 20.588204 -80.935535
RightArm -5.848965 -17.847028 3.864352
RightForeArm 27.995381 0.000000 -4.700053
RightHand 14.959111 0.000000 -0.132825
RightHandThumb1 -24.326973 -0.000000 -32.862282
LeftShoulder -5.993209 4.034798 1.333260
LeftArm 19.513863 21.128742 -67.780396
LeftForeArm 7.332072 -0.000000 -4.929285
LeftHand -11.726835 -0.000000 -1.448233
LeftHandThumb1 -26.253704 0.000000 33.147579
Head -25.890251 14.730960 -47.867139
2113
root -0.957739 31.757713 -10.445669 58.408316 -22.331050 4.804341
RightUpLeg -53.870636 9.959442 4.048327
RightLeg -5.554027 -0.000000 0.000000
RightFoot -5.433977 3.569971 4.392121
RightToeBase 17.801392 -0.000000 -0.000000
LeftUpLeg -67.286606 -9.525497 -6.849382
LeftLeg 3.424322 -0.000000 -0.000000
LeftFoot -5.579442 7.502335 -4.074850
LeftToeBase 8.306931 -0.000000 -0.000000
Spine -32.532768 -30.280898 -25.989355
RightShoulder -30.578648 20.559635 -80.918576
RightArm -5.814218 -17.925113 3.784034
RightForeArm 28.178950 -0.000000 -4.777495
RightHand 15.168692 0.000000 -0.220853
RightHandThumb1 -24.326973 -0.000000 -32.862282
LeftShoulder -5.975538 4.028363 1.362316
LeftArm 19.438035 21.032697 -67.929275
LeftForeArm 7.395976 -0.000000 -4.864092
LeftHand -11.635285 -0.000000 -1.661583
LeftHandThumb1 -26.253704 0.000000 33.147579
Head -25.864696 14.792903 -47.716400
